<svg width="165" height="57" viewBox="0 0 165 57" fill="none" xmlns="http://www.w3.org/2000/svg">
<path fill-rule="evenodd" clip-rule="evenodd" d="M20.6563 25.2947C26.1647 25.2947 30.5464 29.8015 30.5464 35.3099C30.5464 40.8183 26.1647 45.3251 20.6563 45.3251C15.148 45.3251 10.7663 40.8183 10.7663 35.3099C10.7663 29.6763 15.148 25.2947 20.6563 25.2947ZM10.8915 52.9617C9.89002 54.8395 8.01217 56.2166 5.75875 56.2166C2.629 56.2166 0 53.5876 0 50.4579C0 48.2045 1.25191 46.2014 3.25495 45.1999C1.62748 42.3205 0.62595 38.8152 0.62595 35.1847C0.62595 32.4305 0.62595 20.2871 0.62595 11.3986C0.62595 10.0215 0.62595 8.76959 0.62595 7.51769C0.62595 6.39098 0.62595 5.13908 0.62595 4.38794C0.62595 1.88414 3.00457 0.131482 5.50837 0.00629234C8.01217 -0.118898 10.6412 1.63376 10.7663 4.38794C11.1419 10.7726 10.7663 17.5329 10.7663 17.5329C13.6457 15.9054 17.0258 14.9039 20.6563 14.9039C31.7983 14.9039 40.6867 24.0428 40.6867 35.1847C40.6867 46.4518 31.6731 55.4655 20.6563 55.4655C17.151 55.5907 13.7709 54.5891 10.8915 52.9617Z" fill="white"/>
<path fill-rule="evenodd" clip-rule="evenodd" d="M49.9505 15.655C50.0757 15.655 50.0757 15.655 49.9505 15.655C51.3276 15.655 59.465 15.655 67.4771 15.655C71.984 15.655 76.616 15.655 79.7458 15.655C83.877 15.655 86.1305 20.7878 83.3763 23.9176C76.616 31.429 68.729 38.4396 61.9688 45.951C61.9688 45.951 67.6023 45.951 73.1107 45.951C75.99 45.951 79.3702 45.951 80.7473 46.0762C82.8755 46.3266 84.6282 48.8304 84.503 50.9586C84.3778 53.0869 83.5014 54.8395 81.874 55.5906C80.6221 56.0914 76.7412 55.9662 73.7366 55.9662C68.1031 55.9662 62.3443 55.9662 61.468 55.9662C59.9657 55.9662 56.21 56.0914 52.7047 55.9662C50.4513 55.9662 48.1979 55.9662 46.946 54.8395C44.8177 53.0868 44.6926 49.9571 45.9445 48.3296C47.8223 45.8258 67.7275 25.6702 67.7275 25.6702C60.4665 25.6702 51.4528 25.6702 50.2009 25.6702C47.4467 25.6702 45.1933 23.4168 45.1933 20.6626C45.1933 17.9084 47.1963 15.655 49.9505 15.655Z" fill="white"/>
<path fill-rule="evenodd" clip-rule="evenodd" d="M107.538 25.1696C113.046 25.1696 117.553 29.6765 117.553 35.31C117.553 40.9436 113.046 45.4504 107.538 45.4504C101.904 45.4504 97.5225 40.9436 97.5225 35.31C97.5225 29.6765 102.029 25.1696 107.538 25.1696ZM124.939 45.3252C126.817 46.2016 128.069 48.2046 128.069 50.3328C128.069 53.4626 125.565 55.9664 122.435 55.9664C120.182 55.9664 118.304 54.7145 117.428 52.8366C114.423 54.4641 111.168 55.4656 107.538 55.4656C96.521 55.4656 87.5073 46.4519 87.5073 35.1848C87.5073 23.9177 96.521 14.9041 107.538 14.9041C118.554 14.9041 127.568 24.0429 127.568 35.1848C127.568 38.9405 126.692 42.3207 124.939 45.3252Z" fill="white"/>
<path fill-rule="evenodd" clip-rule="evenodd" d="M159.993 15.7802C162.747 15.7802 165 18.0337 165 20.7878C165 23.6672 163.373 24.9191 161.37 25.5451C160.368 25.9206 159.367 25.9206 158.24 26.0458C157.364 26.171 156.487 26.5466 155.611 26.9222C154.735 27.2977 151.73 29.3008 150.729 32.1801C149.101 37.0626 150.478 46.4518 149.978 51.835C149.727 54.0884 147.724 55.8411 145.596 56.2166C143.217 56.5922 140.588 55.2151 140.088 52.3357C139.712 50.5831 139.962 48.0793 139.962 44.8243C139.962 38.9404 139.712 32.3053 141.465 28.5496C141.84 27.6733 142.216 26.9222 142.717 26.171C140.713 25.2947 139.336 23.2917 139.336 20.913C139.336 17.7833 141.965 15.1543 145.095 15.1543C147.349 15.1543 149.352 16.5314 150.353 18.5344C151.48 17.9085 152.481 17.4077 153.733 16.9069C155.486 16.0306 157.865 15.7802 159.993 15.7802Z" fill="white"/>
</svg>
