<svg width="32" height="30" viewBox="0 0 32 30" fill="none" xmlns="http://www.w3.org/2000/svg">
<path d="M31.2984 27.867L22.3091 19.3358C24.0504 17.2946 25.0988 14.7008 25.0988 11.8759C25.0988 5.32844 19.4853 0.000976562 12.5863 0.000976562C5.6873 0.000976562 0.0738525 5.32839 0.0738525 11.8758C0.0738525 18.4233 5.68736 23.7507 12.5863 23.7507C15.563 23.7507 18.296 22.7558 20.4468 21.1033L29.436 29.6344C29.6928 29.8782 30.03 30.0007 30.3672 30.0007C30.7044 30.0007 31.0416 29.8782 31.2984 29.6344C31.8134 29.1457 31.8134 28.3557 31.2984 27.867ZM12.5863 21.2507C7.13878 21.2507 2.70808 17.0458 2.70808 11.8758C2.70808 6.70585 7.13878 2.50091 12.5863 2.50091C18.0339 2.50091 22.4646 6.70585 22.4646 11.8758C22.4646 17.0458 18.0338 21.2507 12.5863 21.2507Z" fill="white"/>
</svg>
